<?xml version="1.0" encoding="utf-8"?>
<svg viewBox="148.5999755859375 302.5 215.70001220703125 214.4000244140625" width="215.70001220703125" height="214.4000244140625" xmlns="http://www.w3.org/2000/svg"><linearGradient id="SVGID_38_" gradientUnits="userSpaceOnUse" x1="453.3694" y1="-251.7399" x2="534.0021" y2="-251.7399" gradientTransform="matrix(-0.8343 0.5513 -0.5513 -0.8343 573.7327 2.750000e-02)">
		<stop offset="0" style="stop-color:#161616"/>
		<stop offset="0.1115" style="stop-color:#1A1A1A"/>
		<stop offset="0.2118" style="stop-color:#252424"/>
		<stop offset="0.3079" style="stop-color:#373737"/>
		<stop offset="0.4013" style="stop-color:#515050"/>
		<stop offset="0.492" style="stop-color:#727171"/>
		<stop offset="0.5169" style="stop-color:#7C7B7B"/>
		<stop offset="0.5671" style="stop-color:#605F5F"/>
		<stop offset="0.6291" style="stop-color:#454545"/>
		<stop offset="0.6969" style="stop-color:#303030"/>
		<stop offset="0.7724" style="stop-color:#212121"/>
		<stop offset="0.8618" style="stop-color:#191919"/>
		<stop offset="1" style="stop-color:#161616"/>
	</linearGradient><linearGradient id="SVGID_39_" gradientUnits="userSpaceOnUse" x1="224.8728" y1="323.2621" x2="295.7856" y2="329.4662">
		<stop offset="0" style="stop-color:#161616"/>
		<stop offset="0.1227" style="stop-color:#191919"/>
		<stop offset="0.2213" style="stop-color:#232323"/>
		<stop offset="0.3115" style="stop-color:#343434"/>
		<stop offset="0.3966" style="stop-color:#4C4B4B"/>
		<stop offset="0.4775" style="stop-color:#6A6969"/>
		<stop offset="0.5169" style="stop-color:#7C7B7B"/>
		<stop offset="0.5671" style="stop-color:#605F5F"/>
		<stop offset="0.6291" style="stop-color:#454545"/>
		<stop offset="0.6969" style="stop-color:#303030"/>
		<stop offset="0.7724" style="stop-color:#212121"/>
		<stop offset="0.8618" style="stop-color:#191919"/>
		<stop offset="1" style="stop-color:#161616"/>
	</linearGradient><linearGradient id="SVGID_40_" gradientUnits="userSpaceOnUse" x1="246.9596" y1="345.0885" x2="270.4432" y2="347.1431">
		<stop offset="0" style="stop-color:#000000"/>
		<stop offset="0.1764" style="stop-color:#090909"/>
		<stop offset="0.4658" style="stop-color:#222121"/>
		<stop offset="0.5169" style="stop-color:#272626"/>
		<stop offset="0.5712" style="stop-color:#212020"/>
		<stop offset="0.8367" style="stop-color:#090909"/>
		<stop offset="1" style="stop-color:#000000"/>
	</linearGradient><g transform="matrix(1, 0, 0, 1, 5.684341886080802e-14, 0)"><path class="st45" d="M260.4,389.5c-13,0-23.5,10.5-23.5,23.5c0,13,10.5,23.5,23.5,23.5c13,0,23.5-10.5,23.5-23.5&#10;&#9;&#9;&#9;C283.9,400,273.4,389.5,260.4,389.5z M364.3,413c0,57.4-46.5,103.9-103.9,103.9c-57.4,0-103.9-46.5-103.9-103.9&#10;&#9;&#9;&#9;c0-57.4,46.5-103.9,103.9-103.9C317.8,309.1,364.3,355.6,364.3,413z" style="fill: rgb(178, 178, 178);" transform="matrix(1, 0, 0, 1, 3.637978807091713e-12, 9.094947017729282e-13)"/><path d="M362.8,409.6c0,59.1-47.9,107.1-107.1,107.1c-59.1,0-107.1-47.9-107.1-107.1c0-59.1,47.9-107.1,107.1-107.1&#10;&#9;&#9;C314.8,302.6,362.8,350.5,362.8,409.6z M255.7,385.4c-13.4,0-24.2,10.8-24.2,24.2c0,13.4,10.9,24.2,24.2,24.2&#10;&#9;&#9;c13.4,0,24.2-10.8,24.2-24.2C279.9,396.2,269.1,385.4,255.7,385.4z" transform="matrix(1, 0, 0, 1, 1.8758328224066645e-12, 4.405364961712621e-13)"/><path class="st46" d="M255.7,385.4c-13.4,0-24.2,10.8-24.2,24.2c0,13.4,10.9,24.2,24.2,24.2c13.4,0,24.2-10.8,24.2-24.2&#10;&#9;&#9;C279.9,396.2,269.1,385.4,255.7,385.4z M357.1,410.5c0,56.4-45.7,102.1-102.1,102.1c-56.4,0-102.1-45.7-102.1-102.1&#10;&#9;&#9;c0-56.4,45.7-102.1,102.1-102.1C311.4,308.5,357.1,354.1,357.1,410.5z" style="fill: rgb(22, 22, 22);" transform="matrix(1, 0, 0, 1, 1.8758328224066645e-12, 4.405364961712621e-13)"/><path class="st69" d="M270.3,480.5l41.6-27.7l29.2,17.6c0,0-13.9,16.9-28.5,25.7c-23.1,13.9-40.8,15.8-40.8,15.8L270.3,480.5z" style="fill: url('#SVGID_38_');" transform="matrix(1, 0, 0, 1, 1.8758328224066645e-12, 4.405364961712621e-13)"/><path class="st70" d="M281.1,342.7l-45.1-0.5l-10.1-29.7c0,0,14.9-4.2,31.9-4.2c13.1,0,39.1,8.9,39.1,8.9L281.1,342.7z" style="fill: url('#SVGID_39_');" transform="matrix(1, 0, 0, 1, 1.8758328224066645e-12, 4.405364961712621e-13)"/><path class="st49" d="M331.5,410.5h-0.2c0,21.1-8.5,40.2-22.4,54c-13.8,13.8-32.9,22.4-54,22.4c-21.1,0-40.2-8.5-54-22.4&#10;&#9;&#9;&#9;c-13.8-13.8-22.4-32.9-22.4-54c0-21.1,8.5-40.2,22.4-54c13.8-13.8,32.9-22.4,54-22.4c21.1,0,40.2,8.5,54,22.4&#10;&#9;&#9;&#9;c13.8,13.8,22.4,32.9,22.4,54H331.5h0.2c0-42.4-34.3-76.7-76.7-76.7c-42.4,0-76.7,34.3-76.7,76.7c0,42.4,34.3,76.7,76.7,76.7&#10;&#9;&#9;&#9;c42.4,0,76.7-34.3,76.7-76.7H331.5z" style="fill: rgb(45, 45, 45); stroke: rgb(22, 22, 22); stroke-width: 0.7564;" transform="matrix(1, 0, 0, 1, 3.637978807091713e-12, 9.094947017729282e-13)"/><path d="M332.8,410.5h-0.2c0,21.4-8.7,40.8-22.7,54.9c-14,14-33.4,22.7-54.9,22.7c-21.4,0-40.8-8.7-54.9-22.7&#10;&#9;&#9;&#9;c-14-14-22.7-33.4-22.7-54.9c0-21.4,8.7-40.8,22.7-54.9c14-14,33.4-22.7,54.9-22.7c21.4,0,40.8,8.7,54.9,22.7&#10;&#9;&#9;&#9;c14,14,22.7,33.4,22.7,54.9H332.8h0.2c0-43-34.9-77.9-77.9-77.9c-43,0-77.9,34.9-77.9,77.9c0,43,34.9,77.9,77.9,77.9&#10;&#9;&#9;&#9;c43,0,77.9-34.9,77.9-77.9H332.8z" transform="matrix(1, 0, 0, 1, 3.637978807091713e-12, 9.094947017729282e-13)"/><path class="st50" d="M334,410.5h-0.2c0,21.8-8.8,41.5-23.1,55.7c-14.3,14.3-34,23.1-55.7,23.1c-21.8,0-41.5-8.8-55.7-23.1&#10;&#9;&#9;&#9;c-14.3-14.3-23.1-34-23.1-55.7c0-21.8,8.8-41.5,23.1-55.7c14.3-14.3,34-23.1,55.7-23.1c21.8,0,41.5,8.8,55.7,23.1&#10;&#9;&#9;&#9;c14.3,14.3,23.1,34,23.1,55.7H334h0.2c0-43.7-35.4-79.1-79.1-79.1c-43.7,0-79.1,35.4-79.1,79.1c0,43.7,35.4,79.1,79.1,79.1&#10;&#9;&#9;&#9;c43.7,0,79.1-35.4,79.1-79.1H334z" style="fill: rgb(22, 22, 22); stroke: rgb(0, 0, 0); stroke-width: 0.1891;" transform="matrix(1, 0, 0, 1, 3.637978807091713e-12, 9.094947017729282e-13)"/><path class="st50" d="M335.2,410.5H335c0,22.1-9,42.1-23.4,56.6c-14.5,14.5-34.5,23.4-56.6,23.4c-22.1,0-42.1-9-56.6-23.4&#10;&#9;&#9;&#9;c-14.5-14.5-23.4-34.5-23.4-56.6c0-22.1,9-42.1,23.4-56.6c14.5-14.5,34.5-23.4,56.6-23.4c22.1,0,42.1,9,56.6,23.4&#10;&#9;&#9;&#9;c14.5,14.5,23.4,34.5,23.4,56.6H335.2h0.2c0-44.4-36-80.4-80.4-80.4c-44.4,0-80.4,36-80.4,80.4c0,44.4,36,80.4,80.4,80.4&#10;&#9;&#9;&#9;c44.4,0,80.4-36,80.4-80.4H335.2z" style="fill: rgb(22, 22, 22); stroke: rgb(0, 0, 0); stroke-width: 0.1891;" transform="matrix(1, 0, 0, 1, 3.637978807091713e-12, 9.094947017729282e-13)"/><path d="M336.4,410.5h-0.2c0,22.4-9.1,42.7-23.8,57.4c-14.7,14.7-35,23.8-57.4,23.8c-22.4,0-42.7-9.1-57.4-23.8&#10;&#9;&#9;&#9;c-14.7-14.7-23.8-35-23.8-57.4c0-22.4,9.1-42.7,23.8-57.4c14.7-14.7,35-23.8,57.4-23.8c22.4,0,42.7,9.1,57.4,23.8&#10;&#9;&#9;&#9;c14.7,14.7,23.8,35,23.8,57.4H336.4h0.2c0-45.1-36.5-81.6-81.6-81.6c-45.1,0-81.6,36.5-81.6,81.6c0,45,36.5,81.6,81.6,81.6&#10;&#9;&#9;&#9;c45,0,81.6-36.5,81.6-81.6H336.4z" transform="matrix(1, 0, 0, 1, 3.637978807091713e-12, 9.094947017729282e-13)"/><path class="st51" d="M337.6,410.5h-0.2c0,22.8-9.2,43.4-24.1,58.3C298.4,483.7,277.8,493,255,493c-22.8,0-43.4-9.2-58.3-24.2&#10;&#9;&#9;&#9;c-14.9-14.9-24.2-35.5-24.2-58.3c0-22.8,9.2-43.4,24.2-58.3c14.9-14.9,35.5-24.2,58.3-24.2c22.8,0,43.4,9.2,58.3,24.2&#10;&#9;&#9;&#9;c14.9,14.9,24.1,35.5,24.1,58.3H337.6h0.2c0-45.7-37.1-82.8-82.8-82.8c-45.7,0-82.8,37.1-82.8,82.8c0,45.7,37.1,82.8,82.8,82.8&#10;&#9;&#9;&#9;c45.7,0,82.8-37.1,82.8-82.8H337.6z" style="fill: rgb(22, 22, 22); stroke: rgb(64, 64, 64); stroke-width: 0.1891;" transform="matrix(1, 0, 0, 1, 3.637978807091713e-12, 9.094947017729282e-13)"/><path class="st50" d="M338.8,410.5h-0.2c0,23.1-9.4,44-24.5,59.2c-15.1,15.1-36.1,24.5-59.2,24.5c-23.1,0-44-9.4-59.2-24.5&#10;&#9;&#9;&#9;c-15.1-15.1-24.5-36.1-24.5-59.2c0-23.1,9.4-44,24.5-59.2c15.1-15.1,36.1-24.5,59.2-24.5c23.1,0,44,9.4,59.2,24.5&#10;&#9;&#9;&#9;c15.1,15.1,24.5,36.1,24.5,59.2H338.8h0.2c0-46.4-37.6-84-84-84c-46.4,0-84,37.6-84,84c0,46.4,37.6,84,84,84c46.4,0,84-37.6,84-84&#10;&#9;&#9;&#9;H338.8z" style="fill: rgb(22, 22, 22); stroke: rgb(0, 0, 0); stroke-width: 0.1891;" transform="matrix(1, 0, 0, 1, 3.637978807091713e-12, 9.094947017729282e-13)"/><path d="M340.1,410.5h-0.2c0,23.4-9.5,44.7-24.9,60c-15.4,15.4-36.6,24.9-60,24.9c-23.4,0-44.7-9.5-60-24.9&#10;&#9;&#9;&#9;c-15.4-15.4-24.9-36.6-24.9-60c0-23.4,9.5-44.7,24.9-60c15.4-15.4,36.6-24.9,60-24.9c23.4,0,44.7,9.5,60,24.9&#10;&#9;&#9;&#9;c15.4,15.4,24.9,36.6,24.9,60H340.1h0.2c0-47.1-38.2-85.2-85.2-85.2c-47.1,0-85.2,38.2-85.2,85.2c0,47.1,38.2,85.2,85.2,85.2&#10;&#9;&#9;&#9;c47.1,0,85.2-38.2,85.2-85.2H340.1z" transform="matrix(1, 0, 0, 1, 3.637978807091713e-12, 9.094947017729282e-13)"/><path class="st50" d="M341.3,410.5h-0.2c0,23.8-9.6,45.3-25.2,60.9c-15.6,15.6-37.1,25.2-60.9,25.2c-23.8,0-45.3-9.6-60.9-25.2&#10;&#9;&#9;&#9;c-15.6-15.6-25.2-37.1-25.2-60.9c0-23.8,9.6-45.3,25.2-60.9c15.6-15.6,37.1-25.2,60.9-25.2c23.8,0,45.3,9.6,60.9,25.2&#10;&#9;&#9;&#9;c15.6,15.6,25.2,37.1,25.2,60.9H341.3h0.2c0-47.7-38.7-86.4-86.4-86.4c-47.7,0-86.4,38.7-86.4,86.4c0,47.7,38.7,86.4,86.4,86.4&#10;&#9;&#9;&#9;c47.7,0,86.4-38.7,86.4-86.4H341.3z" style="fill: rgb(22, 22, 22); stroke: rgb(0, 0, 0); stroke-width: 0.1891;" transform="matrix(1, 0, 0, 1, 3.637978807091713e-12, 9.094947017729282e-13)"/><path class="st50" d="M342.5,410.5h-0.2c0,24.1-9.8,45.9-25.6,61.7c-15.8,15.8-37.6,25.6-61.7,25.6c-24.1,0-45.9-9.8-61.7-25.6&#10;&#9;&#9;&#9;c-15.8-15.8-25.6-37.6-25.6-61.7c0-24.1,9.8-45.9,25.6-61.7c15.8-15.8,37.6-25.6,61.7-25.6c24.1,0,45.9,9.8,61.7,25.6&#10;&#9;&#9;&#9;c15.8,15.8,25.6,37.6,25.6,61.7H342.5h0.2c0-48.4-39.2-87.6-87.6-87.6c-48.4,0-87.6,39.2-87.6,87.6c0,48.4,39.2,87.6,87.6,87.6&#10;&#9;&#9;&#9;c48.4,0,87.6-39.2,87.6-87.6H342.5z" style="fill: rgb(22, 22, 22); stroke: rgb(0, 0, 0); stroke-width: 0.1891;" transform="matrix(1, 0, 0, 1, 3.637978807091713e-12, 9.094947017729282e-13)"/><path class="st52" d="M343.7,410.5h-0.2c0,24.4-9.9,46.6-25.9,62.6c-16,16-38.2,25.9-62.6,25.9c-24.4,0-46.6-9.9-62.6-25.9&#10;&#9;&#9;&#9;c-16-16-25.9-38.2-25.9-62.6c0-24.4,9.9-46.6,25.9-62.6c16-16,38.2-25.9,62.6-25.9c24.4,0,46.6,9.9,62.6,25.9&#10;&#9;&#9;&#9;c16,16,25.9,38.2,25.9,62.6H343.7h0.2c0-49.1-39.8-88.9-88.9-88.9c-49.1,0-88.9,39.8-88.9,88.9s39.8,88.9,88.9,88.9&#10;&#9;&#9;&#9;c49.1,0,88.9-39.8,88.9-88.9H343.7z" style="stroke: rgb(0, 0, 0); stroke-width: 0.3782;" transform="matrix(1, 0, 0, 1, 3.637978807091713e-12, 9.094947017729282e-13)"/><path class="st53" d="M344.9,410.5h-0.2c0,24.8-10,47.2-26.3,63.5c-16.2,16.2-38.7,26.3-63.5,26.3c-24.8,0-47.2-10-63.5-26.3&#10;&#9;&#9;&#9;c-16.2-16.2-26.3-38.7-26.3-63.5s10-47.2,26.3-63.5c16.2-16.2,38.7-26.3,63.5-26.3c24.8,0,47.2,10,63.5,26.3&#10;&#9;&#9;&#9;c16.2,16.2,26.3,38.7,26.3,63.5H344.9h0.2c0-49.7-40.3-90.1-90.1-90.1c-49.7,0-90.1,40.3-90.1,90.1c0,49.7,40.3,90.1,90.1,90.1&#10;&#9;&#9;&#9;c49.7,0,90.1-40.3,90.1-90.1H344.9z" style="fill: rgb(64, 64, 64); stroke: rgb(0, 0, 0); stroke-width: 0.7564;" transform="matrix(1, 0, 0, 1, 3.637978807091713e-12, 9.094947017729282e-13)"/><path class="st50" d="M346.1,410.5H346c0,25.1-10.2,47.9-26.6,64.3c-16.5,16.5-39.2,26.6-64.3,26.6c-25.1,0-47.9-10.2-64.3-26.6&#10;&#9;&#9;&#9;c-16.5-16.5-26.6-39.2-26.6-64.3c0-25.1,10.2-47.9,26.6-64.3c16.5-16.5,39.2-26.6,64.3-26.6c25.1,0,47.9,10.2,64.3,26.6&#10;&#9;&#9;&#9;c16.5,16.5,26.6,39.2,26.6,64.3H346.1h0.2c0-50.4-40.9-91.3-91.3-91.3c-50.4,0-91.3,40.9-91.3,91.3c0,50.4,40.9,91.3,91.3,91.3&#10;&#9;&#9;&#9;c50.4,0,91.3-40.9,91.3-91.3H346.1z" style="fill: rgb(22, 22, 22); stroke: rgb(0, 0, 0); stroke-width: 0.1891;" transform="matrix(1, 0, 0, 1, 3.637978807091713e-12, 9.094947017729282e-13)"/><path class="st50" d="M347.3,410.5h-0.2c0,25.5-10.3,48.5-27,65.2c-16.7,16.7-39.7,27-65.2,27c-25.5,0-48.5-10.3-65.2-27&#10;&#9;&#9;&#9;c-16.7-16.7-27-39.7-27-65.2c0-25.5,10.3-48.5,27-65.2c16.7-16.7,39.7-27,65.2-27c25.5,0,48.5,10.3,65.2,27&#10;&#9;&#9;&#9;c16.7,16.7,27,39.7,27,65.2H347.3h0.2c0-51.1-41.4-92.5-92.5-92.5c-51.1,0-92.5,41.4-92.5,92.5c0,51.1,41.4,92.5,92.5,92.5&#10;&#9;&#9;&#9;c51.1,0,92.5-41.4,92.5-92.5H347.3z" style="fill: rgb(22, 22, 22); stroke: rgb(0, 0, 0); stroke-width: 0.1891;" transform="matrix(1, 0, 0, 1, 3.637978807091713e-12, 9.094947017729282e-13)"/><path d="M348.6,410.5h-0.2c0,25.8-10.5,49.1-27.4,66c-16.9,16.9-40.2,27.4-66,27.4c-25.8,0-49.1-10.5-66-27.4&#10;&#9;&#9;&#9;c-16.9-16.9-27.4-40.2-27.4-66c0-25.8,10.5-49.1,27.4-66c16.9-16.9,40.2-27.4,66-27.4c25.8,0,49.1,10.5,66,27.4&#10;&#9;&#9;&#9;c16.9,16.9,27.4,40.2,27.4,66H348.6h0.2c0-51.8-42-93.7-93.7-93.7c-51.8,0-93.7,42-93.7,93.7c0,51.8,42,93.7,93.7,93.7&#10;&#9;&#9;&#9;c51.8,0,93.7-42,93.7-93.7H348.6z" transform="matrix(1, 0, 0, 1, 3.637978807091713e-12, 9.094947017729282e-13)"/><path class="st50" d="M349.8,410.5h-0.2c0,26.1-10.6,49.8-27.7,66.9c-17.1,17.1-40.8,27.7-66.9,27.7c-26.1,0-49.8-10.6-66.9-27.7&#10;&#9;&#9;&#9;c-17.1-17.1-27.7-40.8-27.7-66.9c0-26.1,10.6-49.8,27.7-66.9c17.1-17.1,40.8-27.7,66.9-27.7c26.1,0,49.8,10.6,66.9,27.7&#10;&#9;&#9;&#9;c17.1,17.1,27.7,40.8,27.7,66.9H349.8h0.2c0-52.4-42.5-94.9-94.9-94.9c-52.4,0-94.9,42.5-94.9,94.9c0,52.4,42.5,94.9,94.9,94.9&#10;&#9;&#9;&#9;c52.4,0,94.9-42.5,94.9-94.9H349.8z" style="fill: rgb(22, 22, 22); stroke: rgb(0, 0, 0); stroke-width: 0.1891;" transform="matrix(1, 0, 0, 1, 3.637978807091713e-12, 9.094947017729282e-13)"/><path class="st52" d="M351,410.5h-0.2c0,26.5-10.7,50.4-28.1,67.8c-17.3,17.3-41.3,28.1-67.8,28.1c-26.5,0-50.4-10.7-67.8-28.1&#10;&#9;&#9;&#9;c-17.3-17.3-28.1-41.3-28.1-67.8c0-26.5,10.7-50.4,28.1-67.8c17.3-17.3,41.3-28.1,67.8-28.1c26.5,0,50.4,10.7,67.8,28.1&#10;&#9;&#9;&#9;c17.3,17.3,28.1,41.3,28.1,67.8H351h0.2c0-53.1-43-96.2-96.2-96.2c-53.1,0-96.2,43-96.2,96.2c0,53.1,43,96.2,96.2,96.2&#10;&#9;&#9;&#9;c53.1,0,96.2-43,96.2-96.2H351z" style="stroke: rgb(0, 0, 0); stroke-width: 0.3782;" transform="matrix(1, 0, 0, 1, 3.637978807091713e-12, 9.094947017729282e-13)"/><path class="st50" d="M352.2,410.5H352c0,26.8-10.9,51.1-28.4,68.6c-17.6,17.6-41.8,28.4-68.6,28.4c-26.8,0-51.1-10.9-68.6-28.4&#10;&#9;&#9;&#9;c-17.6-17.6-28.4-41.8-28.4-68.6c0-26.8,10.9-51.1,28.4-68.6c17.6-17.6,41.8-28.4,68.6-28.4c26.8,0,51.1,10.9,68.6,28.4&#10;&#9;&#9;&#9;c17.6,17.6,28.4,41.8,28.4,68.6H352.2h0.2c0-53.8-43.6-97.4-97.4-97.4s-97.4,43.6-97.4,97.4c0,53.8,43.6,97.4,97.4,97.4&#10;&#9;&#9;&#9;s97.4-43.6,97.4-97.4H352.2z" style="fill: rgb(22, 22, 22); stroke: rgb(0, 0, 0); stroke-width: 0.1891;" transform="matrix(1, 0, 0, 1, 3.637978807091713e-12, 9.094947017729282e-13)"/><path class="st54" d="M353.4,410.5h-0.2c0,27.1-11,51.7-28.8,69.5c-17.8,17.8-42.3,28.8-69.5,28.8c-27.1,0-51.7-11-69.5-28.8&#10;&#9;&#9;&#9;c-17.8-17.8-28.8-42.3-28.8-69.5c0-27.1,11-51.7,28.8-69.5c17.8-17.8,42.3-28.8,69.5-28.8c27.1,0,51.7,11,69.5,28.8&#10;&#9;&#9;&#9;c17.8,17.8,28.8,42.3,28.8,69.5H353.4h0.2c0-54.4-44.1-98.6-98.6-98.6c-54.4,0-98.6,44.1-98.6,98.6c0,54.4,44.1,98.6,98.6,98.6&#10;&#9;&#9;&#9;c54.4,0,98.6-44.1,98.6-98.6H353.4z" style="stroke: rgb(40, 41, 40); stroke-width: 0.1891;" transform="matrix(1, 0, 0, 1, 3.637978807091713e-12, 9.094947017729282e-13)"/><path class="st55" d="M354.6,410.5h-0.2c0,27.5-11.1,52.3-29.1,70.3c-18,18-42.9,29.1-70.3,29.1c-27.5,0-52.3-11.1-70.3-29.1&#10;&#9;&#9;&#9;c-18-18-29.1-42.9-29.1-70.3c0-27.5,11.1-52.3,29.1-70.3c18-18,42.9-29.1,70.3-29.1c27.5,0,52.3,11.1,70.3,29.1&#10;&#9;&#9;&#9;c18,18,29.1,42.9,29.1,70.3H354.6h0.2c0-55.1-44.7-99.8-99.8-99.8c-55.1,0-99.8,44.7-99.8,99.8c0,55.1,44.7,99.8,99.8,99.8&#10;&#9;&#9;&#9;c55.1,0,99.8-44.7,99.8-99.8H354.6z" style="fill: rgb(22, 22, 22); stroke: rgb(40, 41, 40); stroke-width: 0.1891;" transform="matrix(1, 0, 0, 1, 3.637978807091713e-12, 9.094947017729282e-13)"/><path d="M355.8,410.5h-0.2c0,27.8-11.3,53-29.5,71.2c-18.2,18.2-43.4,29.5-71.2,29.5c-27.8,0-53-11.3-71.2-29.5&#10;&#9;&#9;&#9;c-18.2-18.2-29.5-43.4-29.5-71.2c0-27.8,11.3-53,29.5-71.2c18.2-18.2,43.4-29.5,71.2-29.5c27.8,0,53,11.3,71.2,29.5&#10;&#9;&#9;&#9;c18.2,18.2,29.5,43.4,29.5,71.2H355.8h0.2c0-55.8-45.2-101-101-101c-55.8,0-101,45.2-101,101c0,55.8,45.2,101,101,101&#10;&#9;&#9;&#9;c55.8,0,101-45.2,101-101H355.8z" transform="matrix(1, 0, 0, 1, 3.637978807091713e-12, 9.094947017729282e-13)"/><path d="M357.1,410.5h-0.2c0,28.1-11.4,53.6-29.8,72c-18.4,18.4-43.9,29.8-72.1,29.8c-28.1,0-53.6-11.4-72.1-29.8&#10;&#9;&#9;&#9;c-18.4-18.4-29.8-43.9-29.8-72c0-28.1,11.4-53.6,29.8-72.1c18.4-18.4,43.9-29.8,72.1-29.8c28.1,0,53.6,11.4,72.1,29.8&#10;&#9;&#9;&#9;c18.4,18.4,29.8,43.9,29.8,72.1H357.1h0.2c0-56.5-45.8-102.2-102.2-102.2c-56.5,0-102.2,45.8-102.2,102.2&#10;&#9;&#9;&#9;c0,56.5,45.8,102.2,102.2,102.2c56.5,0,102.2-45.8,102.2-102.2H357.1z" transform="matrix(1, 0, 0, 1, 3.637978807091713e-12, 9.094947017729282e-13)"/><path d="M255.7,385.4c-13.4,0-24.2,10.8-24.2,24.2c0,13.4,10.9,24.2,24.2,24.2c13.4,0,24.2-10.8,24.2-24.2&#10;&#9;&#9;C279.9,396.2,269.1,385.4,255.7,385.4z M327.8,410.1c0,39.7-32.2,71.9-71.9,71.9c-39.7,0-71.9-32.2-71.9-71.9&#10;&#9;&#9;c0-39.7,32.2-71.9,71.9-71.9C295.6,338.2,327.8,370.4,327.8,410.1z" transform="matrix(1, 0, 0, 1, 1.8758328224066645e-12, 4.405364961712621e-13)"/><path class="st71" d="M255.7,385.4c-13.4,0-24.2,10.8-24.2,24.2c0,13.4,10.9,24.2,24.2,24.2c13.4,0,24.2-10.8,24.2-24.2&#10;&#9;&#9;C279.9,396.2,269.1,385.4,255.7,385.4z M312.3,409.9c0,31.3-25.4,56.6-56.6,56.6c-31.3,0-56.6-25.4-56.6-56.6&#10;&#9;&#9;c0-31.3,25.4-56.6,56.6-56.6C286.9,353.2,312.3,378.6,312.3,409.9z" style="fill: rgb(238, 206, 145);" transform="matrix(1, 0, 0, 1, 1.8758328224066645e-12, 4.405364961712621e-13)"/><path class="st72" d="M265.1,354c0,0-3.5-0.7-7.2-0.7c-3.6-0.1-6.2,0.1-6.2,0.1l-4.2-14.7c0,0,5.7-0.3,11.1-0.3&#10;&#9;&#9;c4.2,0,12.4,1.4,12.4,1.4L265.1,354z" style="fill: url('#SVGID_40_');" transform="matrix(1, 0, 0, 1, 1.8758328224066645e-12, 4.405364961712621e-13)"/><path class="st73" d="M279.6,366.1l-7.4,13.1c-0.2-0.5-0.7-1-1.4-1.4c-0.8-0.5-2-0.6-3.1-0.4c-1.1,0.2-2.1,0.7-2.6,1.5&#10;&#9;&#9;c-0.3,0.5-0.3,1.1-0.1,1.6c0.2,0.5,0.6,1,1.1,1.3c3.2,2,5.9,0,6.4-0.9l9.4-16.6l-15-5.4l0,0l-8.7,15.3c-0.2-0.5-0.7-1-1.4-1.4&#10;&#9;&#9;c-0.8-0.5-2-0.6-3.1-0.4c-1.1,0.2-2.1,0.7-2.6,1.5c-0.3,0.5-0.3,1.1-0.1,1.6c0.2,0.5,0.6,1,1.1,1.3c3.2,2,5.9,0,6.4-0.9l8.3-14.7&#10;&#9;&#9;L279.6,366.1z" style="fill: rgb(156, 151, 142);" transform="matrix(1, 0, 0, 1, 1.8758328224066645e-12, 4.405364961712621e-13)"/><path class="st73" d="M245.8,360L245.8,360l2.3,16.8c-0.4-0.3-1.1-0.3-1.9-0.2c-0.9,0.1-1.9,0.7-2.6,1.5c-0.7,0.8-1.2,1.7-1.1,2.6&#10;&#9;&#9;c0.1,0.6,0.4,1,0.8,1.3c0.4,0.3,1,0.4,1.6,0.4c3.6-0.3,4.5-3.4,4.4-4.4l-2.5-18.2L245.8,360z" style="fill: rgb(156, 151, 142);" transform="matrix(1, 0, 0, 1, 1.8758328224066645e-12, 4.405364961712621e-13)"/><path class="st73" d="M284.4,367.8L284.4,367.8l-0.7,15.7c-0.4-0.4-1-0.5-1.7-0.5c-0.8,0-1.9,0.3-2.7,0.9c-0.8,0.6-1.4,1.4-1.5,2.2&#10;&#9;&#9;c0,0.5,0.2,1,0.6,1.3c0.4,0.3,0.9,0.6,1.5,0.6c3.4,0.3,4.8-2.4,4.9-3.3l0.6-13.2c0,0,2.9,1.5,3.7,3.1c0.7,1.3-0.8,4.3-0.8,4.3&#10;&#9;&#9;l0.3,0.2c0,0,2.5-3,1.1-5.3c-0.7-1.2-1.8-2.1-2.6-3c-0.7-0.9-1.8-3.1-1.8-3.1L284.4,367.8z" style="fill: rgb(156, 151, 142);" transform="matrix(1, 0, 0, 1, 1.8758328224066645e-12, 4.405364961712621e-13)"/><path class="st73" d="M212.5,382.3L212.5,382.3l5.1,16.4c-0.5-0.2-1.2-0.1-1.9,0.1c-0.9,0.3-1.8,1-2.4,1.9c-0.6,0.9-1,2-0.7,2.8&#10;&#9;&#9;c0.2,0.6,0.6,0.9,1.1,1.1c0.5,0.2,1.1,0.3,1.7,0.1c3.6-1,4.1-4.2,3.8-5.2l-4.3-13.7c0,0,3.5,0.5,5,1.8c1.2,1.1,0.8,4.7,0.8,4.7&#10;&#9;&#9;l0.4,0.1c0,0,1.5-4-0.8-5.8c-1.2-1-2.7-1.5-3.8-2.1c-1.1-0.7-3-2.5-3-2.5L212.5,382.3z" style="fill: rgb(156, 151, 142);" transform="matrix(1, 0, 0, 1, 1.8758328224066645e-12, 4.405364961712621e-13)"/><path class="st73" d="M289.2,386.9L289.2,386.9l8.6,15.9c-0.6-0.1-1.2,0.1-2,0.5c-0.8,0.4-1.6,1.4-2,2.5c-0.4,1-0.6,2.2-0.1,3&#10;&#9;&#9;c0.3,0.5,0.8,0.9,1.3,1c0.5,0.1,1.2,0.1,1.8-0.2c3.4-1.7,3.2-5.1,2.7-6l-5.1-9.3c0,0,3-1.1,5.3,0.7c1.4,1,1.8,4.6,1.8,4.6l0.4,0&#10;&#9;&#9;c0,0,0.3-4.6-2.3-6.2c-1.1-0.7-3.3-1.3-4.2-1.5c-1.5-0.2-2.5-0.9-3-1.3c0,0,1.3-1.7,3.8-1.1c3.7,0.9,3.5,3.1,3.5,3.1l0.5-0.1&#10;&#9;&#9;c0,0,0.3-3.2-4-4.4c-1.3-0.4-1.9-0.1-3.4-0.2c-0.9,0-2.5-1.4-2.5-1.4L289.2,386.9z" style="fill: rgb(156, 151, 142);" transform="matrix(1, 0, 0, 1, 1.8758328224066645e-12, 4.405364961712621e-13)"/><path class="st73" d="M231.5,377.7c0.2,0,0.4,0,0.6,0.1c2,0.4,3,2.6,2.6,4.6c-0.4,1.7-1.7,2.7-3.4,3.1l-0.1,3.4&#10;&#9;&#9;c0,0.3-0.1,0.5-0.1,0.7c-0.4,1.6-1.6,2.4-3.3,2.2c-1.4-0.2-3.2-1.5-3-3c0.1-1,1-1.8,1.9-1.7c0.9,0.1,1.5,1,1.3,1.9&#10;&#9;&#9;c-0.2,1.2-1.5,1.4-2,1.1c-0.1,0.6,0.8,1,1.3,1c1.5,0.2,2.4-0.6,2.8-1.9c0.1-0.3,0.1-0.8,0.1-1.2l0-2.7c-0.5,0-1,0-1.5-0.1&#10;&#9;&#9;c-2.7-0.6-4.4-3.4-4-6.5c0.5-3.2,3.5-4.9,5.8-6.4c0-1.2,0.1-2.4,0.3-3.6c0.3-1.4,2.2-4.1,3.8-4.3c0.7-0.1,1.2,3.4,0.8,5.1&#10;&#9;&#9;c-0.5,2.2-2,4.1-3.9,5.3L231.5,377.7z M230.4,379.5c-1,0.1-1.9,0.8-2.1,1.8c-0.2,0.8,0.2,1.5,0.9,2c0.1,0,0.1,0.1,0.1,0.2&#10;&#9;&#9;c0,0.1-0.1,0.2-0.3,0.1c-1.1-0.7-1.7-2.1-1.4-3.4c0.3-1.3,1.6-2.4,2.9-2.6l0.1-2.5c-2,1.1-4.3,2.5-4.8,4.9&#10;&#9;&#9;c-0.6,2.5,1.2,4.5,3.5,4.9c0.4,0.1,0.7,0.1,1.1,0L230.4,379.5z M235.2,368.1c0.1-0.5-0.1-1.1-0.6-1.2c-1.4,0-2.4,2.2-2.7,3.3&#10;&#9;&#9;c-0.1,0.7-0.2,1.4-0.2,2.1C233.2,371.5,234.8,369.9,235.2,368.1z M231.4,385.1c1.1-0.3,2-1.2,2.2-2.3c0.2-1.5-0.6-2.8-2-3.1&#10;&#9;&#9;L231.4,385.1z" style="fill: rgb(156, 151, 142);" transform="matrix(1, 0, 0, 1, 1.8758328224066645e-12, 4.405364961712621e-13)"/></g></svg>